<svg xmlns="http://www.w3.org/2000/svg" version="1.1" xmlns:xlink="http://www.w3.org/1999/xlink" xmlns:svgjs="http://svgjs.dev/svgjs" width="100%" height="100%" viewBox="0 0 1000 600"><rect width="1000" height="600" x="0" y="0" fill="#ffffff00"/><g><circle r="166.66666666666666" cx="326.04848734537757" cy="348.2706764532675" fill="#ec8b5e" transform="matrix(0.7842805865918401,0,0,0.7842805865918401,0,26.858107376746915)"/><path d="M386.5469682787729 288.98066334675957L386.5469682787729 288.98066334675957Q386.5469682787729 292.84341678868543 381.626813056655 298.3030627149829Q376.68507820636995 303.78428826944753 369.43432314219626 308.7044434915655Q362.2051477061897 313.6461783418505 355.0622907828519 316.51626888808596L355.0622907828519 316.51626888808596Q356.6591832672235 315.99835781207355 358.32081463609666 315.99835781207355L358.32081463609666 315.99835781207355Q363.9315179595644 315.99835781207355 365.765786353775 318.04842248795603L365.765786353775 318.04842248795603Q366.2189585452859 318.50159467946685 366.2189585452859 319.105824268148Q366.2189585452859 319.7100538568292 364.1688938694034 322.0622333270521L364.1688938694034 322.0622333270521Q342.8482212402259 346.706168693976 325.02344837413216 370.9832503820577L325.02344837413216 370.9832503820577Q332.29578306647306 365.30780817408834 337.928066018108 360.1502770421315L337.928066018108 360.1502770421315Q341.03553247418245 357.3449253803976 345.5025155047895 357.3449253803976L345.5025155047895 357.3449253803976Q348.7610393580342 357.3449253803976 349.53790597205284 358.1649512507505Q350.2931929579043 359.00655674927077 350.2931929579043 359.5676270816175Q350.2931929579043 360.1502770421315 349.30053006221385 360.9055640279829L349.30053006221385 360.9055640279829Q336.633288328077 371.9759132777482 307.95396249388983 393.23184702242406L307.95396249388983 393.23184702242406Q303.0122276436047 398.7562318332232 283.072651217127 419.62373227088983L283.072651217127 419.62373227088983Q279.51201256954164 423.27068943114386 275.17450730793774 423.27068943114386L275.17450730793774 423.27068943114386Q266.75845232273605 423.27068943114386 266.75845232273605 418.56633049069785L266.75845232273605 418.56633049069785Q266.75845232273605 416.51626581481537 270.0169761759808 412.02770315604107L270.0169761759808 412.02770315604107Q274.72133511642687 405.1438017707095 292.99928017403147 391.1817823465417L292.99928017403147 391.1817823465417Q297.03467064129484 386.6932196877674 306.8965607136978 375.9897241168443L306.8965607136978 375.9897241168443Q325.56293907831173 355.6617143833572 329.4256925202376 349.8999536627192L329.4256925202376 349.8999536627192Q319.1106302563238 359.6971048506206 313.8020417271966 363.7109156897168Q308.4934531980694 367.724726528813 303.96173128296084 370.6811355877171Q299.45158899601944 373.6591242747885 295.6535744385951 375.4718130408319L295.6535744385951 375.4718130408319Q277.3108904964889 384.27630133304285 269.4990650999684 375.53655192533347L269.4990650999684 375.53655192533347Q265.5499931453738 371.2206262918967 265.5499931453738 362.8477305630295Q265.5499931453738 354.453255205995 270.1680335731511 344.35398922375293Q274.8076536290956 334.27630286967815 282.5331605129474 324.4575720536096Q290.28024702496634 314.6172616093738 300.89742408322076 305.29486224115044Q311.5146011414751 295.97246287292705 322.9733836982497 288.915924462258Q334.43216625502424 281.8593860515889 347.0994079891611 277.5650400463194Q359.7666497232979 273.27069404104975 370.98805637023344 273.27069404104975L370.98805637023344 273.27069404104975Q374.8723894403265 273.27069404104975 378.28197069074156 274.56547173108083Q381.6915519411566 275.8602494211118 383.1373870283579 277.3060845083131L383.1373870283579 277.3060845083131Q386.5469682787729 280.71566575872816 386.5469682787729 288.98066334675957ZM342.6971638430556 304.8416900496396L342.6971638430556 304.8416900496396L342.33031016421353 306.3522640213424Q342.33031016421353 307.6470417113735 344.0566804175882 307.6470417113735L344.0566804175882 307.6470417113735Q348.6963004735327 307.6470417113735 356.7455017798922 303.1584790525992Q364.77312345808457 298.6914960219922 369.7148583083696 293.98713708154617Q374.6350135304875 289.2827781411001 374.6350135304875 286.1753116850257L374.6350135304875 286.1753116850257Q374.6350135304875 283.52101742046204 369.93065459004146 283.52101742046204L369.93065459004146 283.52101742046204Q361.60091811750857 283.52101742046204 351.1563780845916 287.621146772227Q340.73341767984186 291.72127612399186 330.7852090947702 298.23832383048136Q320.85858013786566 304.75537153697087 311.21248634713453 313.21458577850683Q301.5879721845706 321.6738000200429 294.4019560048984 330.13301426157886Q287.2375194533934 338.59222850311494 282.83527530728793 346.706168693976Q278.4330311611825 354.8416885130042 278.4330311611825 360.6034492336423L278.4330311611825 360.6034492336423Q278.4330311611825 362.86931019119663 279.77096810754784 364.61726007273853Q281.0873254257461 366.3652099542803 283.67688080580814 366.3652099542803L283.67688080580814 366.3652099542803Q291.6397635994989 366.3652099542803 309.3566383247568 354.1511404116544Q327.0735130500146 341.9370708690284 350.05581704806525 320.8537741496899L350.05581704806525 320.8537741496899Q350.35793184240583 320.55165935534933 351.1132188282573 319.7100538568292L351.1132188282573 319.7100538568292Q352.7964298252976 317.6599891809467 354.5443797068395 316.75364479792495L354.5443797068395 316.75364479792495Q348.30786716652335 319.25688166531825 344.35879521192874 319.25688166531825Q340.43130288550134 319.25688166531825 337.8417475054393 317.50893178377646Q335.2737717535444 315.76098190223456 335.2737717535444 312.761413586996Q335.2737717535444 309.76184527175747 337.928066018108 307.1075510071938Q340.58236028267163 304.4532567426303 341.6397620628636 304.4532567426303Q342.6971638430556 304.4532567426303 342.6971638430556 304.8416900496396Z " fill="#212121" transform="matrix(0.7842805865918401,0,0,0.7842805865918401,0,26.858107376746915)"/><path d="M691.9434771205448 288.4629217092696L691.9434771205448 288.4629217092696Q691.9434771205448 292.1627977066392 687.2307859060182 297.39223137889906Q682.4974249931821 302.6423347494682 675.5524063612482 307.3550259639949Q668.6280574276235 312.0883868768308 661.786387287236 314.83745675197133L661.786387287236 314.83745675197133Q663.3159449621264 314.34138399254755 664.9075117319446 314.34138399254755L664.9075117319446 314.34138399254755Q670.2816332923696 314.34138399254755 672.0385576486625 316.30500533193367L672.0385576486625 316.30500533193367Q672.4726213131584 316.7390689964295 672.4726213131584 317.3178205490907Q672.4726213131584 317.8965721017519 670.5089999737722 320.1495692174685L670.5089999737722 320.1495692174685Q650.0873380441568 343.75436468672046 633.0141672406523 367.00777528471383L633.0141672406523 367.00777528471383Q639.9798555708957 361.57164462936066 645.3746468296301 356.6315867334314L645.3746468296301 356.6315867334314Q648.3510833861733 353.9445259532189 652.629710936204 353.9445259532189L652.629710936204 353.9445259532189Q655.7508353809126 353.9445259532189 656.4949445200483 354.7299744889733Q657.2183839608747 355.5360927230371 657.2183839608747 356.07350487907956Q657.2183839608747 356.6315867334314 656.2675778386457 357.3550261742579L656.2675778386457 357.3550261742579Q644.1344649310705 367.9585814069428 616.6644358779743 388.3182342416304L616.6644358779743 388.3182342416304Q611.9310749651384 393.60967700881815 592.8322737273198 413.59727527393784L592.8322737273198 413.59727527393784Q589.4217735062807 417.0904542882141 585.267164146106 417.0904542882141L585.267164146106 417.0904542882141Q577.2059818054684 417.0904542882141 577.2059818054684 412.5844600567808L577.2059818054684 412.5844600567808Q577.2059818054684 410.6208387173947 580.3271062501767 406.3215414690545L580.3271062501767 406.3215414690545Q584.83310048161 399.7279077083791 602.3403349496105 386.3546129022443L602.3403349496105 386.3546129022443Q606.2055685334547 382.05531565390413 615.6516206608173 371.8031452924778L615.6516206608173 371.8031452924778Q633.5309096983856 352.33228948509134 637.2307856957551 346.8134800365009L637.2307856957551 346.8134800365009Q627.3506699038967 356.19752306893554 622.2659241198021 360.0420869544705Q617.1811783357075 363.88665084000536 612.8405416907488 366.7183995083832Q608.5205747440993 369.57081787507036 604.8827078416577 371.3070725330539L604.8827078416577 371.3070725330539Q587.3134642787294 379.74030944325955 579.8310334907528 371.3690816279819L579.8310334907528 371.3690816279819Q576.048478700146 367.23514196611643 576.048478700146 359.2152990220974Q576.048478700146 351.174786379769 580.471794138342 341.5013675710038Q584.9157792748474 331.84861846054787 592.3155312695867 322.4439057298039Q599.7359529626351 313.01852330075053 609.9054445308243 304.0892136311211Q620.0749360990134 295.15990396149164 631.0505459012662 288.4009126143416Q642.0261557035192 281.6419212671915 654.1592686110944 277.52865130363534Q666.2923815186696 273.4153813400792 677.0406246395197 273.4153813400792L677.0406246395197 273.4153813400792Q680.7611703351987 273.4153813400792 684.0269826680725 274.6555632386388Q687.2927950009463 275.8957451371985 688.677664787671 277.28061492392345L688.677664787671 277.28061492392345Q691.9434771205448 280.5464272567972 691.9434771205448 288.4629217092696ZM649.9426501559915 303.65514996662523L649.9426501559915 303.65514996662523L649.591265284733 305.1020288482781Q649.591265284733 306.34221074683785 651.244841149479 306.34221074683785L651.244841149479 306.34221074683785Q655.6888262859845 306.34221074683785 663.3986237553636 302.0429134984977Q671.0877515264335 297.7642859484669 675.8211124392695 293.25829171703356Q680.5338036537961 288.75229748560014 680.5338036537961 285.775860929057L680.5338036537961 285.775860929057Q680.5338036537961 283.23348803700975 676.0278094223628 283.23348803700975L676.0278094223628 283.23348803700975Q668.0493058749623 283.23348803700975 658.0451718932479 287.16073071578194Q648.0617076098426 291.0879733945542 638.5329766892428 297.33022228397107Q629.0249154669522 303.57247117338795 619.7855603226828 311.6749929106443Q610.5668748767227 319.7775146479006 603.6838653397167 327.88003638515704Q596.82152550102 335.98255812241337 592.6049070459172 343.75436468672046Q588.3882885908145 351.5468409493369 588.3882885908145 357.06565039792736L588.3882885908145 357.06565039792736Q588.3882885908145 359.23596872040673 589.6698098859927 360.9102142834622Q590.9306614828618 362.5844598465177 593.411025279981 362.5844598465177L593.411025279981 362.5844598465177Q601.0381439561229 362.5844598465177 618.0079662680806 350.88541060343846Q634.9777885800385 339.1863613603591 656.9910172794721 318.9920661121462L656.9910172794721 318.9920661121462Q657.2803930558027 318.70269033581565 658.0038324966292 317.8965721017519L658.0038324966292 317.8965721017519Q659.6160689647568 315.93295076236575 661.2903145278123 315.06482343337404L661.2903145278123 315.06482343337404Q655.3167717164166 317.4625084372559 651.5342169258097 317.4625084372559Q647.7723318335121 317.4625084372559 645.2919680363927 315.7882628742004Q642.8322739375828 314.11401731114495 642.8322739375828 311.2409292461484Q642.8322739375828 308.3678411811519 645.3746468296301 305.8254682891046Q647.9170197216774 303.28309539705737 648.9298349388345 303.28309539705737Q649.9426501559915 303.28309539705737 649.9426501559915 303.65514996662523ZM688.677664787671 402.9110412480155L688.677664787671 402.9110412480155Q688.3056102181032 403.28309581758344 686.466007068573 406.5902475470758Q684.6057342207336 409.8973992765682 682.4974249931821 413.2665601009886Q680.3891157656309 416.65639062371827 677.309330717541 419.69483627518935Q674.208875971142 422.7539516249699 672.1419061402092 423.00198800468183Q670.0749363092764 423.270694082703 669.4961847566153 423.270694082703L669.4961847566153 423.270694082703Q662.7992025043932 423.270694082703 662.7992025043932 416.51170273555294L662.7992025043932 416.51170273555294Q662.7992025043932 408.5745385847713 671.0257424315055 397.97098335208625L671.0257424315055 397.97098335208625Q674.146866876214 393.9817315783861 678.8595580907405 389.37238885540603Q683.5929190035766 384.74237643411675 684.0269826680725 384.1222854848369Q684.4610463325683 383.52286423386647 694.919913677088 363.74196295184004L694.919913677088 363.74196295184004Q687.9542253468447 371.3690816279819 682.0013522337584 376.14378193743653Q676.0278094223628 380.8978125485819 670.5089999737722 381.47656410124296L670.5089999737722 381.47656410124296L669.9922575160391 381.47656410124296Q667.1605088476613 381.47656410124296 664.4114389725207 379.6162912534036Q661.6416993990708 377.7766881038734 661.6416993990708 373.1260059842747L661.6416993990708 373.1260059842747Q661.6416993990708 366.2223267489594 665.3415753964405 359.75271117813986L665.3415753964405 359.75271117813986Q666.6644360882374 357.4997140624232 669.8889090244925 352.1255925019981Q673.1340516590568 346.75147094157296 675.8831215341974 341.7287342524064L675.8831215341974 341.7287342524064Q678.508173219482 337.7394824787061 681.2572430946226 332.42737001320904Q684.0269826680725 327.11525754771185 685.4738615497255 324.84159073368585Q686.9414101296876 322.5472542213505 688.2436011231752 322.5472542213505Q689.5457921166629 322.5472542213505 691.6127619475957 324.1801603877874Q693.7004014768378 325.8130665542243 693.7004014768378 328.06606366994095Q693.7004014768378 330.3190607856576 684.1716705562377 347.61959827056467Q674.6429396356378 364.92013575547173 674.6429396356378 367.3178207593537L674.6429396356378 367.3178207593537Q674.6429396356378 367.8965723120149 675.2423608866083 367.8965723120149L675.2423608866083 367.8965723120149Q677.1853125276851 367.8965723120149 683.9236341765258 362.33642346680585Q690.6412861270572 356.7762746215967 698.7851472609321 348.0536619350605L698.7851472609321 348.0536619350605Q707.859144818727 338.38024312629534 713.0265693960588 330.401739578895L713.0265693960588 330.401739578895Q713.6673300436479 329.3682546634286 714.0807240098346 328.830842507386Q714.4734482777118 328.29343035134355 715.0935392269915 327.38396362573314Q715.7136301762713 326.47449690012274 716.1063544441487 325.9577544423895Q716.4990787120258 325.4616816829657 717.0571605663778 324.75891194044857Q717.5945727224201 324.07681189624077 718.028636386916 323.70475732667285Q718.4627000514118 323.3533724554143 718.9794425091451 322.98131788584635L718.9794425091451 322.98131788584635Q719.785560743209 322.25787844501997 720.7570365637472 322.25787844501997Q721.749182082595 322.25787844501997 723.7334731202903 322.6919421095158Q725.7384338562953 323.1260057740117 726.1311581241724 323.6427482317449Q726.5445520903589 324.1388209911687 726.9786157548548 324.57288465566455L726.9786157548548 324.57288465566455Q727.7020551956813 325.3790028897283 727.7020551956813 326.0611029339361Q727.7020551956813 326.7638726764533 727.1233036430202 327.88003638515704Q726.5445520903589 329.01686979217004 720.36431229587 339.4137280417617L720.36431229587 339.4137280417617Q702.1956474819714 370.06689063449426 695.3539773415838 384.1636248814556L695.3539773415838 384.1636248814556Q706.412265937074 374.8622606422582 726.4618732971218 356.6315867334314L726.4618732971218 356.6315867334314Q727.2679915311854 355.97015638753294 728.05344006694 355.97015638753294L728.05344006694 355.97015638753294Q730.3064371826566 355.97015638753294 730.3064371826566 362.87383562284833L730.3064371826566 362.87383562284833Q730.3064371826566 364.92013575547173 729.5829977418301 365.56089640306084L729.5829977418301 365.56089640306084Q707.859144818727 382.28268233530673 688.677664787671 402.9110412480155ZM724.7256186391381 379.2235669855263L724.7256186391381 379.2235669855263L721.1497608316246 379.078879097361L719.8475698381368 379.078879097361Q719.1241303973105 378.87218211426773 718.2973424649373 378.2107517683693Q717.4498848342549 377.5493214224708 717.0158211697591 377.2599456461402Q716.5817575052632 376.97056986980965 716.5817575052632 376.20579103236446Q716.5817575052632 375.4410121949194 717.1605090579243 373.56006964877065L717.1605090579243 373.56006964877065Q731.3399220981229 342.39016459830486 744.5478593177833 323.70475732667285L744.5478593177833 323.70475732667285Q746.0154078977454 321.6791268923588 749.2398808340005 320.6249722785831Q752.4850234685649 319.57081766480735 755.5234691200361 319.57081766480735L755.5234691200361 319.57081766480735Q757.3424025712569 319.57081766480735 757.3424025712569 322.4025663331852L757.3424025712569 322.4025663331852Q757.3424025712569 323.20868456724895 756.7636510185956 324.5522149573553Q756.1848994659346 325.89574534746157 753.8492235569805 328.93419099893265Q751.5342173463358 331.9933063487132 748.3304141083901 335.9205490274853Q745.1472805687537 339.84779170625757 744.6925472059485 340.42654325891874L744.6925472059485 340.42654325891874Q754.6553417910442 330.11236380256435 762.6958544333726 325.0482877167791Q770.7156973773916 320.0048813293032 774.3122248832148 320.0048813293032Q777.9087523890377 320.0048813293032 779.831034331805 322.07185116023595Q781.7533162745725 324.1388209911687 781.7533162745725 326.5158362967413Q781.7533162745725 328.8721819040047 781.4432707999325 330.4224092772042Q781.1125556269834 331.9933063487132 780.2444282979917 333.70889130838736Q779.3556312706907 335.4038065697522 778.75621001972 336.6026490716931Q778.1361190704403 337.80149157363417 776.6685704904779 339.7237735164016Q775.2216916088252 341.66672515747837 774.6842794527826 342.39016459830486Q774.1261975984306 343.11360403913125 772.4312823370659 345.1392344734454Q770.7156973773916 347.1855346060688 770.5710094892264 347.39223158916207L770.5710094892264 347.39223158916207Q772.5966399235405 345.366601154848 776.2345068259821 341.3566796828385Q779.8723737284237 337.3674279091383 782.3734072238523 334.6803671289257Q784.8951104175902 331.9933063487132 788.6569955098879 328.6034758259834Q792.439550300495 325.2343150015631 795.7053626333685 323.1260057740117L795.7053626333685 323.1260057740117Q803.559847990913 318.1859478780824 811.6210303315507 318.1859478780824L811.6210303315507 318.1859478780824Q814.3907699050006 318.1859478780824 816.2717124511493 319.9222025360659Q818.1733246956074 321.6791268923588 818.1733246956074 324.0974815945501Q818.1733246956074 326.5365059950507 812.2824606774492 335.7345217427014Q806.3915966592909 344.93253749035216 800.5420720377512 354.19256233293083Q794.6925474162116 363.4525871755095 794.6925474162116 365.8502721793915L794.6925474162116 365.8502721793915Q794.6925474162116 369.19876330550255 795.9327293147711 369.8188542547823Q797.1729112133308 370.4389452040622 798.9091658713143 370.29425731589686Q800.6660902276072 370.14956942773154 803.807884370625 368.0412602001802Q806.970348211952 365.93295097262876 809.4507120090713 363.6799538569121L809.4507120090713 363.6799538569121Q813.4399637827715 360.0420869544705 816.8711337021199 356.6315867334314L816.8711337021199 356.6315867334314Q817.5945731429464 355.97015638753294 818.4627004719381 355.97015638753294L818.4627004719381 355.97015638753294Q819.847570258663 355.97015638753294 820.1369460349935 358.0784656150844Q820.4263218113241 360.1867748426357 820.4263218113241 362.4397719583525Q820.4263218113241 364.69276907406913 819.9922581468282 365.56089640306084L819.9922581468282 365.56089640306084Q817.8839489192768 369.6328269699984 810.690893907631 375.52369098815666Q803.497838895985 381.414555006315 796.8835354370002 381.414555006315L796.8835354370002 381.414555006315Q796.0774172029365 381.414555006315 795.7053626333685 381.33187621307775L795.7053626333685 381.33187621307775Q788.222931845392 380.60843677225125 785.3498437803954 377.2186062495216Q782.4974254137084 373.8494454251012 782.4974254137084 369.19876330550255Q782.4974254137084 364.5480811859038 785.6598892550354 357.93377772691906Q788.8016833980531 351.3194742679343 792.5842381886602 345.9453527075092Q796.366792979267 340.57123114708406 799.529256820594 336.25126420043455Q802.6917206619213 331.9106275554758 802.6917206619213 331.5592426842172Q802.6917206619213 331.1871881146494 802.11296910926 331.1871881146494L802.11296910926 331.1871881146494Q799.8599719935434 331.1871881146494 792.0881654292363 338.4629219195326L792.0881654292363 338.4629219195326Q778.7768797180294 350.88541060343846 769.1241306075734 362.4397719583525L769.1241306075734 362.4397719583525Q766.5817577155261 365.4988873081329 757.0530267949263 377.92137599203863L757.0530267949263 377.92137599203863Q755.957532784532 379.3682548736916 753.6011871772686 379.3682548736916Q751.2448415700052 379.3682548736916 748.7024686779579 378.4587881480812Q746.1600957859108 377.5493214224708 746.1600957859108 376.10244254081783L746.1600957859108 376.10244254081783Q746.1600957859108 375.37900309999145 757.7144571408247 355.722120007821Q769.2688184957389 336.06523691565064 769.2688184957389 334.28764286104854Q769.2688184957389 332.5100488064463 767.1191698715687 332.5100488064463Q764.9695212473986 332.5100488064463 758.293208693486 338.89698558402847L758.293208693486 338.89698558402847Q739.8971771981845 356.4868988452662 729.8103644232327 373.8494454251012L729.8103644232327 373.8494454251012Q729.1489340773343 374.8622606422582 727.2679915311854 377.05324866304693Q725.3663792867272 379.2235669855263 724.7256186391381 379.2235669855263ZM851.7409147499553 304.3785894074517L851.7409147499553 304.3785894074517L853.8492239775068 303.8618469497185Q854.2832876420024 303.8618469497185 854.2832876420024 304.70930458040095Q854.2832876420024 305.5360925127741 851.7822541465738 307.43770475723215Q849.2605509528358 309.318647303381 845.7467022402503 309.318647303381Q842.2121838293552 309.318647303381 840.2278927916599 307.29301686906683Q838.2229320556552 305.24671673644343 838.2229320556552 301.98090440356975L838.2229320556552 301.98090440356975Q838.2229320556552 295.07722516825436 847.2349205185218 288.27689442448565Q856.2469089813886 281.4972333790263 869.3928371061207 277.3839634154701Q882.5594349291624 273.2706934519139 894.6098690435005 273.2706934519139L894.6098690435005 273.2706934519139Q912.2824610979752 273.2706934519139 920.8810555946555 279.0168695819069Q929.500319789645 284.76304571189996 929.500319789645 294.4157948223559L929.500319789645 294.4157948223559Q929.500319789645 306.7762744113337 912.3444701929033 318.3306357662477L912.3444701929033 318.3306357662477Q903.3324817300364 324.42819676749934 892.8736143855168 328.06606366994095L892.8736143855168 328.06606366994095Q904.3452969471936 329.3062455685006 911.1869670875809 335.48648536298947L911.1869670875809 335.48648536298947Q916.3337219666035 340.1371674825881 916.3337219666035 347.33022249423414Q916.3337219666035 354.52327750588006 909.4713821279068 361.96436889723793Q902.6090422892102 369.4054602885958 891.1993688224612 374.3248484862157Q879.7896953557125 379.2235669855263 867.8632794312306 379.2235669855263L867.8632794312306 379.2235669855263Q854.1385997538372 379.2235669855263 847.6689841830176 373.1880150792027L847.6689841830176 373.1880150792027Q844.7752264197119 370.4389452040622 844.7752264197119 368.28929657989215Q844.7752264197119 366.139647955722 845.8500507317968 363.74196295184004L845.8500507317968 363.74196295184004Q840.558607964609 373.33270296736805 838.0782441674897 378.2107517683693L838.0782441674897 378.2107517683693Q836.9827501570954 380.38107009084865 833.675598427603 380.38107009084865Q830.3684466981107 380.38107009084865 828.5701829451992 378.64481543286513Q826.7512494939784 376.9085607748816 826.7512494939784 374.7175727540929Q826.7512494939784 372.5472544316135 827.3920101415675 370.87300886855803L827.3920101415675 370.87300886855803Q830.6578224744411 362.29508407018716 850.4593934547769 330.71178505353487Q870.2609644351127 299.14915573519187 874.7049495716179 294.12641904602526L874.7049495716179 294.12641904602526Q877.0199557822626 291.29467037764744 885.2464957093749 291.29467037764744L885.2464957093749 291.29467037764744Q888.5123080422487 291.29467037764744 888.5123080422487 292.74154925930037L888.5123080422487 292.74154925930037Q888.5123080422487 293.83704326969473 878.8388892334834 309.11195032028763Q869.1861401230275 324.3661876725713 868.7520764585316 325.0896271133978L868.7520764585316 325.0896271133978Q878.8388892334834 322.1751996517826 889.4217747678591 317.1317932643067Q899.9839906039255 312.0883868768308 907.8798153580884 305.6807804009393Q915.7549704139423 299.29384362335713 915.7549704139423 294.12641904602526L915.7549704139423 294.12641904602526Q915.7549704139423 285.6311730408917 897.296929823713 285.6311730408917L897.296929823713 285.6311730408917Q877.9707619044917 285.6311730408917 860.0914728669235 295.88334340231813L860.0914728669235 295.88334340231813Q855.6681574287273 298.42571629436543 853.3324815197735 300.5340255219168Q851.0174753091288 302.6423347494682 851.0174753091288 303.5104620784599Q851.0174753091288 304.3785894074517 851.7409147499553 304.3785894074517ZM864.8248337797596 339.1036825671217L864.8248337797596 339.1036825671217Q863.5226427862718 339.1036825671217 861.9104063181443 336.06523691565064L861.9104063181443 336.06523691565064Q855.0067270828289 347.10285581283154 847.4622871999244 360.6208385071317L847.4622871999244 360.6208385071317Q850.8727874209634 355.908147292605 857.404412086711 355.908147292605L857.404412086711 355.908147292605Q861.7657184299791 355.908147292605 861.7657184299791 356.98297160468996L861.7657184299791 356.98297160468996Q861.7657184299791 357.4170352691858 860.81491230775 357.78908983875374L860.81491230775 357.78908983875374Q857.9211545444442 358.88458384914816 857.9211545444442 361.05490217162753L857.9211545444442 361.05490217162753Q857.9211545444442 366.28433584388733 869.0414522348623 366.28433584388733L869.0414522348623 366.28433584388733Q884.0683229057432 366.28433584388733 896.2841146065558 355.8254684993676L896.2841146065558 355.8254684993676Q902.8157392723034 350.3066590507773 902.8157392723034 346.15204969060244L902.8157392723034 346.15204969060244Q902.8157392723034 343.60967679855514 897.5242965051156 340.57123114708406L897.5242965051156 340.57123114708406Q891.3440567106267 337.16073092604495 878.6942013453182 337.16073092604495L878.6942013453182 337.16073092604495Q869.909579563854 337.16073092604495 867.4292157667347 338.1322067465834Q864.9695216679248 339.1036825671217 864.8248337797596 339.1036825671217ZM966.9951525227649 324.42819676749934L966.9951525227649 324.42819676749934Q966.9951525227649 329.2235667752633 963.1092492406113 332.8614336777049Q959.2233459584578 336.4993005801465 954.2832880625286 336.4993005801465L954.2832880625286 336.4993005801465Q952.6710515944011 336.4993005801465 952.1749788349772 335.7345217427014Q951.658236377244 334.96974290525634 951.658236377244 333.7295610066966Q951.658236377244 332.5100488064463 951.9476121535746 331.3318760028146L951.9476121535746 331.3318760028146Q949.3225604682901 332.20000333180644 946.1394269286535 334.01893678302724Q942.9356236907078 335.83787023424804 938.2849415711092 339.4137280417617Q933.6342594515105 342.96891615096604 933.6342594515105 344.70517080894956L933.6342594515105 344.70517080894956Q933.6342594515105 345.2839223616106 935.3498444111848 345.2839223616106Q937.0447596725495 345.2839223616106 940.6206174800633 344.0850798596697Q944.1758055892675 342.88623735772865 945.5813450743018 342.88623735772865Q947.0075542576454 342.88623735772865 947.4416179221413 343.03092524589397L947.4416179221413 343.03092524589397Q948.3924240443702 343.5476677036272 949.4879180547647 345.2632526633014Q950.5627423668496 346.9581679246662 950.5627423668496 347.9503134435139Q950.5627423668496 348.92178926405234 948.6817998207008 350.51335603387054Q946.7801875762428 352.1255925019981 944.3825025723607 352.9523804343712Q941.9848175684787 353.79983806505356 941.1993690327243 354.2339017295494L941.1993690327243 354.2339017295494Q925.8624528872034 362.8118265279203 925.8624528872034 365.9949600675568L925.8624528872034 365.9949600675568Q925.8624528872034 371.65845740431246 935.5358716959687 371.65845740431246L935.5358716959687 371.65845740431246Q941.6954417921482 371.65845740431246 947.9583603798743 367.75188442384956L947.9583603798743 367.75188442384956Q953.2498031470622 364.4033932977386 957.5077609987837 360.9515536800809Q961.7657188505051 357.4997140624232 962.8818825592087 356.69359582835943Q964.0187159662217 355.908147292605 964.597467518883 355.908147292605L964.597467518883 355.908147292605Q966.4784100650317 355.908147292605 966.4784100650317 360.10409604939844Q966.4784100650317 364.3207145045012 965.982337305608 365.66424489460746Q965.4655948478747 367.00777528471383 963.0679098439929 368.97139662409995L963.0679098439929 368.97139662409995Q947.5242967153785 381.6212519894083 933.6342594515105 381.6212519894083L933.6342594515105 381.6212519894083Q926.2345074567712 381.6212519894083 921.790522320266 379.5956215550942L921.790522320266 379.5956215550942Q913.6466611863908 375.87507585941523 913.6466611863908 368.24795718327346L913.6466611863908 368.24795718327346Q913.6466611863908 358.2231535032496 927.536698450259 353.05572892591783L927.536698450259 353.05572892591783Q924.7669588768091 351.83621672566744 923.9815103410546 349.9139347829Q923.1753921069909 347.97098314182324 923.1753921069909 343.7336949884111Q923.1753921069909 339.47573713668965 927.1233044840723 334.7217065255444Q931.0918865594632 329.9470062160897 936.8380626894563 326.9085605646186L936.8380626894563 326.9085605646186Q949.6326059429299 320.0048813293032 959.6574096229537 320.0048813293032L959.6574096229537 320.0048813293032Q962.0550946268357 320.0048813293032 964.5147887256456 321.16238443462555Q966.9951525227649 322.3198875399479 966.9951525227649 324.42819676749934ZM1019.6822135132405 323.5600694385075L1019.6822135132405 323.5600694385075Q1025.2010229618309 323.5600694385075 1025.2010229618309 327.34262422911445L1025.2010229618309 327.34262422911445Q1025.2010229618309 329.3682546634286 1024.2502168396018 330.3190607856576Q1023.2994107173728 331.2698669078867 1020.2196256692831 336.6026490716931Q1017.1398406211932 341.956100933809 1013.3986252272051 350.2653196541586Q1009.6367401349074 358.5952080728175 1008.5619158228225 364.46540239266653L1008.5619158228225 364.46540239266653Q1008.3345491414199 365.20951153180226 1008.3345491414199 366.51170252528993L1008.3345491414199 366.51170252528993Q1008.3345491414199 370.5009542989901 1010.5255371622085 370.5009542989901Q1012.695855484688 370.5009542989901 1015.6722920412311 368.43398446805736Q1018.6487285977743 366.3670146371246 1020.9844045067283 364.01066902986133Q1023.2994107173728 361.6336537242887 1025.5317381347804 359.1739596254787Q1027.7433958538782 356.69359582835943 1028.1774595183742 356.34221095710086Q1028.6115231828699 355.97015638753294 1029.479650511862 355.97015638753294L1029.479650511862 355.97015638753294Q1030.8645202985867 355.97015638753294 1031.1538960749172 358.0784656150844Q1031.443271851248 360.1867748426357 1031.443271851248 362.4397719583525Q1031.443271851248 364.69276907406913 1031.009208186752 365.56089640306084L1031.009208186752 365.56089640306084Q1028.9008989592007 369.7155057632357 1021.7491833441733 375.52369098815666Q1014.5974677291459 381.33187621307775 1008.7479431076064 381.33187621307775Q1002.8984184860668 381.33187621307775 1000.1286789126169 377.7766881038734Q997.358939339167 374.2214999946691 997.358939339167 369.88086334971035Q997.358939339167 365.56089640306084 998.8264879191291 362.29508407018716L998.8264879191291 362.29508407018716Q992.7909360128057 370.14956942773154 984.9777900518799 375.5857000830847Q977.1646440909541 381.0425004367471 972.2245861950247 381.0425004367471Q967.2845282990955 381.0425004367471 964.1634038543872 378.06606388020396L964.1634038543872 378.06606388020396Q960.1534823823775 374.3661878828343 960.1534823823775 367.7725541221589Q960.1534823823775 361.19959005979274 963.1092492406113 354.56461690249864Q966.044346400536 347.9089740468953 970.8397164083 342.4108342966142Q975.6350864160639 336.93336424464235 981.381262546057 332.42737001320904L981.381262546057 332.42737001320904Q993.4316966603948 322.98131788584635 1003.6218579268931 322.98131788584635L1003.6218579268931 322.98131788584635Q1007.5491006056653 322.98131788584635 1010.0087947044755 324.283508879334Q1012.4891585015947 325.6063695711309 1013.1299191491838 327.5493212122077L1013.1299191491838 327.5493212122077Q1014.8868435054766 324.9449392252325 1016.0856860074176 324.2628391810247Q1017.2845285093587 323.5600694385075 1019.6822135132405 323.5600694385075ZM1010.0087947044755 331.62125177914527L1010.0087947044755 331.62125177914527Q997.5863060205696 331.62125177914527 984.2956900076721 345.42861024977594L984.2956900076721 345.42861024977594Q979.5623290948362 350.3686681457052 975.5937470194452 357.2723473810206Q971.6458346423636 364.1760266163359 971.6458346423636 366.7183995083832Q971.6458346423636 369.2607724004305 973.0927135240166 369.2607724004305L973.0927135240166 369.2607724004305Q975.13901365664 369.2607724004305 984.4403778958373 361.24092945641144Q993.7417421350348 353.20041681408304 996.7801877865057 349.43853172178547L996.7801877865057 349.43853172178547Q1000.1286789126169 345.2219132666827 1010.0087947044755 331.62125177914527ZM1071.418468381487 285.6311730408917L1074.828968602526 285.1971093763958L1077.8054051590693 285.9205488172223Q1078.4668355049675 285.9205488172223 1078.9629082643914 286.58197916312076Q1079.479650722125 287.22273981071 1079.479650722125 287.8014913633711Q1079.479650722125 288.4009126143416 1077.9500930472345 290.94328550638886Q1076.4205353723441 293.48565839843616 1074.3535655414116 296.71013133469125Q1072.286595710479 299.95527396925564 1072.1419078223134 300.24464974558623L1072.1419078223134 300.24464974558623Q1077.8054051590693 299.8105860810904 1080.1617507663327 299.8105860810904Q1082.5387660719052 299.8105860810904 1083.406893400897 300.12063155573026Q1084.2750207298886 300.4513467286795 1085.3911844385925 301.93956500695106Q1086.5280178456055 303.42778328522263 1087.4788239678346 304.19256212266777Q1088.4089603917541 304.9573409601129 1088.4089603917541 306.48689863500306Q1088.4089603917541 308.01645630989333 1086.5693572422242 309.07061092366905Q1084.7090843943847 310.1247655374448 1082.600775166833 310.331462520538L1082.600775166833 310.331462520538Q1065.7549710447315 312.0057080835935 1063.9980466884385 312.0883868768308L1063.9980466884385 312.0883868768308Q1058.10718267028 321.1003753396976 1047.544966834214 340.15783718089745Q1036.9620812998382 359.23596872040673 1036.3213206522491 364.0313387281707L1036.3213206522491 364.0313387281707Q1036.0319448759187 366.2223267489594 1036.0319448759187 367.60719653568435L1036.0319448759187 367.60719653568435Q1036.0319448759187 370.4389452040622 1039.0083814324616 370.4389452040622Q1041.984817989005 370.4389452040622 1045.6226848914466 368.14460869172683Q1049.2398820955787 365.8502721793915 1052.2989974453594 363.16321139917886L1052.2989974453594 363.16321139917886Q1060.4428585792343 355.908147292605 1061.0216101318956 355.908147292605L1061.0216101318956 355.908147292605Q1062.9025526780442 355.908147292605 1062.9025526780442 362.4397719583525L1062.9025526780442 362.4397719583525Q1062.9025526780442 365.9949600675568 1059.6367403451704 368.82670873593463L1059.6367403451704 368.82670873593463Q1052.2989974453594 375.15163641858885 1047.2969304545022 378.3554396565346Q1042.2741937653354 381.55924289448035 1037.2514570761691 381.55924289448035L1037.2514570761691 381.55924289448035Q1036.176632764084 381.55924289448035 1035.2258266418548 381.33187621307775L1035.2258266418548 381.33187621307775Q1029.4176414169337 380.23638220268333 1026.6892412401025 377.0739183613563Q1023.9608410632712 373.9114545200291 1024.00218045989 368.537332959604Q1024.0435198565087 363.16321139917886 1027.1853139995264 355.4947533264184Q1030.3477778408537 347.8262952536579 1035.1431478486174 339.1863613603591L1035.1431478486174 339.1863613603591Q1042.997633206162 325.0896271133978 1050.8521185637064 312.72914752442L1050.8521185637064 312.72914752442L1048.0823789902565 313.1012020939879Q1039.6491420800508 314.0520082162169 1038.2849419916352 314.0520082162169L1038.2849419916352 314.0520082162169L1037.623511645737 314.0520082162169Q1035.5152024181853 314.0520082162169 1033.5515810787992 313.20455058553455Q1031.5879597394132 312.3777626531614 1031.5879597394132 311.1375807546018Q1031.5879597394132 309.8973988560422 1032.6421143531888 308.7398957507198Q1033.6962689669645 307.5823926453975 1033.923635648367 306.920962299499L1033.923635648367 306.920962299499Q1034.419708407791 305.3293955296807 1037.7268601372834 303.3657741902947Q1041.034011866776 301.4021528509086 1042.7082574298315 301.29880435936195Q1044.3825029928867 301.174786169506 1045.9534000643957 301.11277707457793Q1047.5036274375952 301.03009828134066 1049.4259093803626 300.9680891864127Q1051.3481913231303 300.88541039317533 1052.3816762385964 300.8234012982474L1052.3816762385964 300.8234012982474L1058.913300904344 300.5340255219168Q1065.0108619055954 291.3773491708847 1067.305198417931 288.75229748560014Q1069.5995349302661 286.1479154986249 1069.9509198015248 285.8792094206036Q1070.3229743710926 285.6311730408917 1071.418468381487 285.6311730408917L1071.418468381487 285.6311730408917ZM1064.8041649225024 364.2587054095733L1064.8041649225024 364.2587054095733L1064.721486129265 365.41620851489563Q1064.721486129265 367.23514196611643 1066.1063559159902 368.537332959604Q1067.491225702715 369.860193651401 1068.6487288080375 369.860193651401L1068.6487288080375 369.860193651401Q1077.3713414945732 369.860193651401 1084.0889934451047 367.23514196611643Q1090.8066453956362 364.61009028083186 1090.8066453956362 362.0057082938565L1090.8066453956362 362.0057082938565Q1090.8066453956362 360.7655263952969 1088.388290693445 359.8560596696865Q1085.9492662929442 358.9465929440761 1080.1617507663327 357.60306255396983Q1074.3949049380303 356.2595321638636 1071.7698532527456 355.4947533264184Q1069.1654712657705 354.7299744889733 1067.6359135908801 354.0892138413842Q1066.1063559159902 353.42778349548564 1064.5147891461716 352.2702803901633L1064.5147891461716 352.2702803901633Q1061.1042889251326 349.8725953862813 1061.1042889251326 345.11856477513606Q1061.1042889251326 340.34386446568146 1064.6181376377185 335.65184294946414Q1068.1526560486136 330.98049113155605 1073.4440988158012 327.6320000054451Q1078.7562112812984 324.283508879334 1084.85377228255 321.7411359872867L1084.85377228255 321.7411359872867Q1096.9248760951973 316.7390689964295 1105.130746324 316.7390689964295L1105.130746324 316.7390689964295Q1113.191928664638 316.7390689964295 1115.0935409090962 320.21157831239657L1115.0935409090962 320.21157831239657Q1115.672292461757 321.4517602109562 1115.672292461757 322.98131788584635L1115.672292461757 322.98131788584635L1115.672292461757 323.4980603435796Q1115.672292461757 327.34262422911445 1114.0393862953201 329.5129425515938Q1112.4064801288832 331.70393057238255 1108.8719617179886 333.44018523036607Q1105.3581130054026 335.19710958665894 1103.2704734761605 335.19710958665894Q1101.203503645228 335.19710958665894 1100.6660914891854 334.9077338103283Q1100.1080096348337 334.5976883356884 1099.756624763575 334.1429549728832Q1099.3845701940072 333.66755191176867 1098.8471580379646 333.44018523036607Q1098.309745881922 333.2334882472728 1098.309745881922 332.365360918281Q1098.309745881922 331.47656389097995 1099.0331853227485 330.56709716536955Q1099.756624763575 329.65763043975915 1100.0460005399054 328.6448152226021L1100.0460005399054 328.6448152226021Q1095.2506305321417 328.8721819040047 1090.021196859882 330.8564729417002Q1084.791763187622 332.8614336777049 1081.0505477936335 335.34179747482415Q1077.3093323996454 337.80149157363417 1074.828968602526 340.0544886893508Q1072.348604805407 342.3074858050675 1072.348604805407 343.3616404188432Q1072.348604805407 344.4157950326189 1075.697095931518 345.07722537851737L1075.697095931518 345.07722537851737Q1090.7446363007084 348.0536619350605 1095.4573275152347 350.2239802575399Q1100.190688428071 352.4149682783286 1102.009621879292 355.16403815346916Q1103.8285553305122 357.93377772691906 1103.8285553305122 360.1867748426357L1103.8285553305122 360.1867748426357Q1103.8285553305122 364.83745696223446 1100.1080096348337 368.97139662409995Q1096.4081336374638 373.1260059842747 1090.9513332838014 375.73038797125L1090.9513332838014 375.73038797125Q1079.2522840407223 381.47656410124296 1070.5710107508048 381.47656410124296Q1061.8897374608873 381.47656410124296 1058.5825857313948 378.83084271764915Q1055.2754340019023 376.1644516357459 1055.2754340019023 372.5472544316135Q1055.2754340019023 368.9093875291719 1057.1357068497418 365.8089327827728Q1058.9959796975813 362.729147734683 1061.8897374608873 362.729147734683Q1064.8041649225024 362.729147734683 1064.8041649225024 364.2587054095733Z " fill="#212121" transform="matrix(0.7842805865918401,0,0,0.7842805865918401,0,26.858107376746915)"/></g></svg>